<svg xmlns="http://www.w3.org/2000/svg" x="0px" y="0px" width="100" height="100" viewBox="0 0 50 50">
    <path fill="#858585" d="M 9 4 C 6.2504839 4 4 6.2504839 4 9 L 4 41 C 4 43.749516 6.2504839 46 9 46 L 41 46 C 43.749516 46 46 43.749516 46 41 L 46 9 C 46 6.2504839 43.749516 4 41 4 L 9 4 z M 9 6 L 41 6 C 42.668484 6 44 7.3315161 44 9 L 44 41 C 44 42.668484 42.668484 44 41 44 L 9 44 C 7.3315161 44 6 42.668484 6 41 L 6 9 C 6 7.3315161 7.3315161 6 9 6 z M 25 8 C 20.040757 8 16 12.040757 16 17 C 16 21.959243 20.040757 26 25 26 C 29.959243 26 34 21.959243 34 17 C 34 12.040757 29.959243 8 25 8 z M 25 10 C 28.878757 10 32 13.121243 32 17 C 32 20.878757 28.878757 24 25 24 C 21.121243 24 18 20.878757 18 17 C 18 13.121243 21.121243 10 25 10 z M 25 12 C 22.250421 12 20 14.250421 20 17 C 20 19.749579 22.250421 22 25 22 C 27.749579 22 30 19.749579 30 17 C 30 14.250421 27.749579 12 25 12 z M 25 14 C 26.668699 14 28 15.331301 28 17 C 28 18.668699 26.668699 20 25 20 C 23.331301 20 22 18.668699 22 17 C 22 15.331301 23.331301 14 25 14 z M 32.951172 25.496094 C 32.372772 25.503634 31.791345 25.676303 31.285156 26.027344 L 31.283203 26.027344 L 31.28125 26.029297 C 29.432856 27.320898 27.268379 28 25 28 C 22.737298 28 20.576731 27.323821 18.728516 26.039062 C 17.377623 25.098209 15.490886 25.437767 14.552734 26.789062 C 13.613177 28.139582 13.952491 30.025479 15.302734 30.964844 C 16.454169 31.76524 17.758305 32.225808 19.046875 32.710938 L 14.878906 36.878906 C 13.715833 38.041979 13.715833 39.958021 14.878906 41.121094 C 15.460397 41.702585 16.234094 42 17 42 C 17.765906 42 18.539603 41.702585 19.121094 41.121094 L 25 35.242188 L 30.878906 41.121094 C 31.460397 41.702585 32.234094 42 33 42 C 33.765906 42 34.539603 41.702585 35.121094 41.121094 C 36.284167 39.958021 36.284167 38.041979 35.121094 36.878906 L 31.060547 32.816406 C 32.335826 32.331112 33.576919 31.746206 34.716797 30.951172 C 36.064821 30.00979 36.402425 28.123102 35.460938 26.773438 C 34.990518 26.098747 34.282847 25.678008 33.525391 25.542969 C 33.336026 25.509209 33.143972 25.49358 32.951172 25.496094 z M 33.175781 27.5 C 33.426324 27.54446 33.659732 27.687659 33.820312 27.917969 C 34.142825 28.380303 34.034242 28.987929 33.572266 29.310547 C 32.16405 30.29274 30.615412 31.007156 28.982422 31.455078 L 27.324219 31.910156 L 28.539062 33.126953 L 33.707031 38.292969 C 34.105958 38.691896 34.105958 39.308104 33.707031 39.707031 C 33.506522 39.90754 33.258094 40 33 40 C 32.741906 40 32.493478 39.90754 32.292969 39.707031 L 25 32.414062 L 17.707031 39.707031 C 17.506522 39.90754 17.258094 40 17 40 C 16.741906 40 16.493478 39.90754 16.292969 39.707031 C 15.894042 39.308104 15.894042 38.691896 16.292969 38.292969 L 22.675781 31.910156 L 21.017578 31.455078 C 19.390514 31.007917 17.848643 30.297762 16.445312 29.322266 C 15.981556 28.99963 15.87287 28.395121 16.195312 27.931641 L 16.195312 27.929688 C 16.515162 27.468984 17.12483 27.358541 17.585938 27.679688 L 17.585938 27.681641 C 19.765721 29.196883 22.336702 30 25 30 C 27.668734 30 30.244732 29.193291 32.425781 27.669922 C 32.657863 27.508974 32.925238 27.455539 33.175781 27.5 z"></path>
</svg>