<svg width="25" height="24" viewBox="0 0 25 24" fill="none" xmlns="http://www.w3.org/2000/svg">
<path d="M8.18232 11.3572C9.54232 14.03 11.7334 16.2211 14.4062 17.5811L16.484 15.5033C16.7484 15.2389 17.1168 15.1633 17.4473 15.2672C18.5051 15.6167 19.6384 15.8056 20.819 15.8056C21.0695 15.8056 21.3097 15.9051 21.4868 16.0822C21.6639 16.2593 21.7634 16.4995 21.7634 16.75V20.0556C21.7634 20.306 21.6639 20.5463 21.4868 20.7234C21.3097 20.9005 21.0695 21 20.819 21C16.5608 21 12.477 19.3084 9.46599 16.2974C6.45499 13.2864 4.76343 9.20264 4.76343 4.94444C4.76343 4.69396 4.86293 4.45374 5.04005 4.27662C5.21717 4.0995 5.45739 4 5.70787 4H9.01343C9.26391 4 9.50413 4.0995 9.68125 4.27662C9.85837 4.45374 9.95787 4.69396 9.95787 4.94444C9.95787 6.125 10.1468 7.25833 10.4962 8.31611C10.6001 8.64667 10.5245 9.015 10.2601 9.27944L8.18232 11.3572Z" fill="#858585"/>
</svg>
