<svg width="25" height="24" viewBox="0 0 25 24" fill="none" xmlns="http://www.w3.org/2000/svg">
<path d="M3.76343 4C3.23299 4 2.72429 4.21071 2.34921 4.58579C1.97414 4.96086 1.76343 5.46957 1.76343 6V17H3.76343C3.76343 17.7956 4.0795 18.5587 4.64211 19.1213C5.20472 19.6839 5.96778 20 6.76343 20C7.55908 20 8.32214 19.6839 8.88475 19.1213C9.44736 18.5587 9.76343 17.7956 9.76343 17H15.7634C15.7634 17.7956 16.0795 18.5587 16.6421 19.1213C17.2047 19.6839 17.9678 20 18.7634 20C19.5591 20 20.3221 19.6839 20.8847 19.1213C21.4474 18.5587 21.7634 17.7956 21.7634 17H23.7634V12L20.7634 8H17.7634V4H3.76343ZM17.7634 9.5H20.2634L22.2334 12H17.7634V9.5ZM6.76343 15.5C7.16125 15.5 7.54278 15.658 7.82409 15.9393C8.10539 16.2206 8.26343 16.6022 8.26343 17C8.26343 17.3978 8.10539 17.7794 7.82409 18.0607C7.54278 18.342 7.16125 18.5 6.76343 18.5C6.3656 18.5 5.98407 18.342 5.70277 18.0607C5.42146 17.7794 5.26343 17.3978 5.26343 17C5.26343 16.6022 5.42146 16.2206 5.70277 15.9393C5.98407 15.658 6.3656 15.5 6.76343 15.5ZM18.7634 15.5C19.1613 15.5 19.5428 15.658 19.8241 15.9393C20.1054 16.2206 20.2634 16.6022 20.2634 17C20.2634 17.3978 20.1054 17.7794 19.8241 18.0607C19.5428 18.342 19.1613 18.5 18.7634 18.5C18.3656 18.5 17.9841 18.342 17.7028 18.0607C17.4215 17.7794 17.2634 17.3978 17.2634 17C17.2634 16.6022 17.4215 16.2206 17.7028 15.9393C17.9841 15.658 18.3656 15.5 18.7634 15.5Z" fill="#858585"/>
</svg>
